# xmcd
#
# Track frame offsets: 
#        150
#        39926
#        69246
#        109058
#        134864
#        167493
#        201318
#        238078
#        264477
#        295011
#
# Disc length: 4227 seconds
#
# Revision: 0
# Processed by: cddbd v1.5.2PL0 Copyright (c) Steve Scherf et al.
# Submitted via: ExactAudioCopy v0.95b4
#
DISCID=9010810a
DTITLE=Eric Clapton - The Twelfth Night
DYEAR=1989
DGENRE=Blues
TTITLE0=Crossroads
TTITLE1=White Room
TTITLE2=I Shot The Sheriff
TTITLE3=Bell Bottom Blues
TTITLE4=Lay Down Sally
TTITLE5=Wonderful Tonight
TTITLE6=Wanna Make Love To You
TTITLE7=After Midnight
TTITLE8=Can't Find My Way Home
TTITLE9=Forever Man
EXTD=
EXTT0=
EXTT1=
EXTT2=
EXTT3=
EXTT4=
EXTT5=
EXTT6=
EXTT7=
EXTT8=
EXTT9=
PLAYORDER=
